# xmcd
#
# Track frame offsets:
#	187
#	16685
#	33055
#	49432
#	62105
#	75095
#	91845
#
# Disc length: 1236 seconds
#
# Revision: 1
# Processed by: cddbd v1.5.2PL0 Copyright (c) Steve Scherf et al.
# Submitted via: audiograbber 1.83.01
#
DISCID=4104d207
DTITLE=Restless Heart - Big Iron Horses EP
DYEAR=1993
DGENRE=Country
TTITLE0=Big Iron Horses (Single Edit Version)
TTITLE1=Big Iron Horses (Single Edit Version)
TTITLE2=Big Iron Horses (Single Edit Version)
TTITLE3=We Got the Love (Single Edit Version)
TTITLE4=Mending Fences
TTITLE5=When She Cries
TTITLE6=Suggested Hook for Market Research
EXTD=
EXTT0=
EXTT1=
EXTT2=
EXTT3=
EXTT4=
EXTT5=
EXTT6=
PLAYORDER=
